{"title":"Dawn of the Planet of the Apes(2014)MPEG-4[","uid":15094311,"size":1441819857,"categoryP":"video","categoryS":"movies","magnet":"?xt=urn:btih:bf23c4f935ea578955a85642bcab6c04a19da6d7&amp;dn=Dawn+of+the+Planet+of+the+Apes%282014%29MPEG-4%5B&amp;tr=udp%3A%2F%2Ftracker.leechers-paradise.org%3A6969&amp;tr=udp%3A%2F%2Fzer0day.ch%3A1337&amp;tr=udp%3A%2F%2Fopen.demonii.com%3A1337&amp;tr=udp%3A%2F%2Ftracker.coppersurfer.tk%3A6969&amp;tr=udp%3A%2F%2Fexodus.desync.com%3A6969","seeders":2,"leechers":0,"uploader":"dascuba","files":1,"time":1466912604,"description":"Dawn of the Planet of the Apes (2014)\r\nPG-13 | 2h 10min | Action, Adventure, Drama | 11 July 2014 (USA)\r\nA growing nation of genetically evolved apes led by Caesar is threatened by a band of human survivors of the devastating virus unleashed a decade earlier.\r\nDirector: Matt Reeves\r\nWriters: Mark Bomback, Rick Jaffa | \r\nStars: Gary Oldman, Keri Russell, Andy Serkis |\r\n\r\nGeneral\r\nComplete name                            : DawnPlanetApesDAWN_OF_THE_PLANET_OF_THE_APES_Title1.mp4\r\nFormat                                   : MPEG-4\r\nFormat profile                           : Base Media\r\nCodec ID                                 : isom (isom/iso2/avc1/mp41)\r\nFile size                                : 1.34 GiB\r\nDuration                                 : 2h 10mn\r\nOverall bit rate                         : 1 475 Kbps\r\nMovie name                               : DAWN_OF_THE_PLANET_OF_THE_APES\r\nGenre                                    : Science_Fiction\r\nWriting application                      : Lavf54.6.100\r\n\r\nVideo\r\nID                                       : 1\r\nFormat                                   : AVC\r\nFormat/Info                              : Advanced Video Codec\r\nFormat profile                           :   \r\nFormat settings, CABAC                   : No\r\nFormat settings, ReFrames                : 6 frames\r\nCodec ID                                 : avc1\r\nCodec ID/Info                            : Advanced Video Coding\r\nDuration                                 : 2h 10mn\r\nBit rate                                 : 1 208 Kbps\r\nWidth                                    : 720 pixels\r\nHeight                                   : 404 pixels\r\nDisplay aspect ratio                     : 16:9\r\nFrame rate mode                          : Constant\r\nFrame rate                               : 29.970 (30000/1001) fps\r\nColor space                              : YUV\r\nChroma subsampling                       : 4:2:0\r\nBit depth                                : 8 bits\r\nScan type                                : Progressive\r\nBits/(Pixel*Frame)                       : 0.139\r\nStream size                              : 1.10 GiB (82%)\r\n\r\nAudio\r\nID                                       : 2\r\nFormat                                   : AAC\r\nFormat/Info                              : Advanced Audio Codec\r\nFormat profile                           : LC\r\nCodec ID                                 : 40\r\nDuration                                 : 2h 10mn\r\nBit rate mode                            : Constant\r\nBit rate                                 : 265 Kbps\r\nChannel(s)                               : 2 channels\r\nChannel(s)_Original                      : 6 channels\r\nChannel positions                        : Front: L C R, Side: L R, LFE\r\nSampling rate                            : 44.1 KHz\r\nFrame rate                               : 43.066 fps (1024 spf)\r\nCompression mode                         : Lossy\r\nStream size                              : 243 MiB (18%)\r\nDefault                                  : Yes\r\nAlternate group                          : 1","torrent":{"xt":"urn:btih:bf23c4f935ea578955a85642bcab6c04a19da6d7","amp;dn":"Dawn+of+the+Planet+of+the+Apes%282014%29MPEG-4%5B","amp;tr":["udp%3A%2F%2Ftracker.leechers-paradise.org%3A6969","udp%3A%2F%2Fzer0day.ch%3A1337","udp%3A%2F%2Fopen.demonii.com%3A1337","udp%3A%2F%2Ftracker.coppersurfer.tk%3A6969","udp%3A%2F%2Fexodus.desync.com%3A6969"],"infoHash":"bf23c4f935ea578955a85642bcab6c04a19da6d7","infoHashBuffer":{"type":"Buffer","data":[191,35,196,249,53,234,87,137,85,168,86,66,188,171,108,4,161,157,166,215]},"announce":[],"urlList":[]}}